<svg width="43" height="43" viewBox="0 0 43 43" fill="none" xmlns="http://www.w3.org/2000/svg">
<path fill-rule="evenodd" clip-rule="evenodd" d="M21.5 43C33.3741 43 43 33.3741 43 21.5C43 9.62588 33.3741 0 21.5 0C9.62588 0 0 9.62588 0 21.5C0 33.3741 9.62588 43 21.5 43ZM18.0795 24.7576L21.7932 34.3023H23.1939L25.8326 27.2333L32.9667 34.3674L34.3674 32.9667L9.87045 8.4697L8.4697 9.87045L15.6038 17.0045L8.53485 19.6432V21.0439L18.0795 24.7576ZM25.8 21.5977L27.3636 23.1614L31.9894 10.8477L19.6758 15.4735L21.2394 17.0371L28.6341 14.203L25.8 21.5977ZM24.2689 25.6697L22.3795 30.5886L19.578 23.2591L12.2811 20.4576L17.1674 18.5682L24.2689 25.6697Z" fill="black" fill-opacity="0.6"/>
</svg>
