<svg width="43" height="43" viewBox="0 0 43 43" fill="none" xmlns="http://www.w3.org/2000/svg">
<path fill-rule="evenodd" clip-rule="evenodd" d="M21.5 43C33.3741 43 43 33.3741 43 21.5C43 9.62588 33.3741 0 21.5 0C9.62588 0 0 9.62588 0 21.5C0 33.3741 9.62588 43 21.5 43ZM33.8889 15.3333L21.4444 6L9 15.3333V34H33.8889V15.3333ZM24.4778 23.0287C23.6481 23.8614 22.6386 24.2778 21.449 24.2778C20.2595 24.2778 19.2484 23.863 18.4157 23.0333C17.583 22.2037 17.1667 21.1941 17.1667 20.0046C17.1667 18.815 17.5815 17.8039 18.4111 16.9713C19.2407 16.1386 20.2503 15.7222 21.4399 15.7222C22.6294 15.7222 23.6405 16.137 24.4732 16.9667C25.3059 17.7963 25.7222 18.8059 25.7222 19.9954C25.7222 21.185 25.3074 22.1961 24.4778 23.0287ZM20.0639 21.3874C20.4398 21.7588 20.9023 21.9444 21.4512 21.9444C22.0003 21.9444 22.4604 21.7565 22.8318 21.3806C23.2032 21.0046 23.3889 20.5422 23.3889 19.9932C23.3889 19.4442 23.2009 18.984 22.825 18.6126C22.4491 18.2413 21.9866 18.0556 21.4376 18.0556C20.8886 18.0556 20.4284 18.2435 20.0571 18.6194C19.6857 18.9954 19.5 19.4578 19.5 20.0068C19.5 20.5558 19.688 21.016 20.0639 21.3874ZM17.2639 29.6444C18.5991 29.1778 19.9796 28.9444 21.4056 28.9444C22.8315 28.9444 24.212 29.1778 25.5472 29.6444C26.8824 30.1111 28.1204 30.7852 29.2611 31.6667H13.5889C14.7037 30.7852 15.9287 30.1111 17.2639 29.6444ZM11.3333 30.5389V16.3444L21.4444 8.99444L31.5556 16.3444V30.5778C30.1556 29.3333 28.5849 28.3611 26.8436 27.6611C25.1023 26.9611 23.2896 26.6111 21.4056 26.6111C19.5397 26.6111 17.7446 26.9546 16.0201 27.6417C14.2956 28.3287 12.7333 29.2944 11.3333 30.5389Z" fill="black" fill-opacity="0.6"/>
</svg>
