<svg width="43" height="43" viewBox="0 0 43 43" fill="none" xmlns="http://www.w3.org/2000/svg">
<path fill-rule="evenodd" clip-rule="evenodd" d="M21.5 43C33.3741 43 43 33.3741 43 21.5C43 9.62588 33.3741 0 21.5 0C9.62588 0 0 9.62588 0 21.5C0 33.3741 9.62588 43 21.5 43ZM6.24371 28.1339V30.3735C7.41327 30.3735 8.278 30.0873 8.8379 29.515C9.39779 28.9427 10.1505 28.6565 11.0961 28.6565C12.0417 28.6565 12.8318 28.9924 13.4664 29.6643C14.1009 30.3362 14.9781 30.6721 16.0979 30.6721C17.2177 30.6721 18.1073 30.3362 18.7667 29.6643C19.4261 28.9924 20.2287 28.6565 21.1743 28.6565C22.1199 28.6565 22.9162 28.9924 23.5632 29.6643C24.2101 30.3362 25.0935 30.6721 26.2133 30.6721C27.3331 30.6721 28.2165 30.3362 28.8635 29.6643C29.5105 28.9924 30.3068 28.6565 31.2524 28.6565C32.198 28.6565 32.9507 28.9427 33.5106 29.515C34.0705 30.0873 34.9353 30.3735 36.1048 30.3735V28.1339C35.1592 28.1339 34.394 27.8477 33.8092 27.2754C33.2245 26.7031 32.3722 26.4169 31.2524 26.4169C30.1326 26.4169 29.2554 26.7528 28.6209 27.4247C27.9863 28.0966 27.1838 28.4325 26.2133 28.4325C25.2428 28.4325 24.4403 28.0966 23.8058 27.4247C23.1712 26.7528 22.2941 26.4169 21.1743 26.4169C20.0545 26.4169 19.1711 26.7528 18.5241 27.4247C17.8771 28.0966 17.0684 28.4325 16.0979 28.4325C15.1274 28.4325 14.3311 28.0966 13.709 27.4247C13.0869 26.7528 12.2159 26.4169 11.0961 26.4169C9.97635 26.4169 9.12407 26.7031 8.53929 27.2754C7.95451 27.8477 7.18932 28.1339 6.24371 28.1339ZM6.24371 22.1617V24.4013C7.41327 24.4013 8.278 24.1151 8.8379 23.5428C9.39779 22.9704 10.1505 22.6843 11.0961 22.6843C12.0417 22.6843 12.8318 23.0202 13.4664 23.6921C14.1009 24.3639 14.9781 24.6999 16.0979 24.6999C17.2177 24.6999 18.1073 24.3639 18.7667 23.6921C19.4261 23.0202 20.2287 22.6843 21.1743 22.6843C22.1199 22.6843 22.9162 23.0202 23.5632 23.6921C24.2101 24.3639 25.0935 24.6999 26.2133 24.6999C27.3331 24.6999 28.2165 24.3639 28.8635 23.6921C29.5105 23.0202 30.3068 22.6843 31.2524 22.6843C32.198 22.6843 32.9507 22.9704 33.5106 23.5428C34.0705 24.1151 34.9353 24.4013 36.1048 24.4013V22.1617C35.1592 22.1617 34.394 21.8755 33.8092 21.3032C33.2245 20.7308 32.3722 20.4447 31.2524 20.4447C30.1326 20.4447 29.2554 20.7806 28.6209 21.4525C27.9863 22.1244 27.1838 22.4603 26.2133 22.4603C25.2428 22.4603 24.4403 22.1244 23.8058 21.4525C23.1712 20.7806 22.2941 20.4447 21.1743 20.4447C20.0545 20.4447 19.1711 20.7806 18.5241 21.4525C17.8771 22.1244 17.0684 22.4603 16.0979 22.4603C15.1274 22.4603 14.3311 22.1244 13.709 21.4525C13.0869 20.7806 12.2159 20.4447 11.0961 20.4447C9.97635 20.4447 9.12407 20.7308 8.53929 21.3032C7.95451 21.8755 7.18932 22.1617 6.24371 22.1617ZM6.24371 16.1895V18.4291C7.41327 18.4291 8.278 18.1429 8.8379 17.5705C9.39779 16.9982 10.1505 16.712 11.0961 16.712C12.0417 16.712 12.8318 17.048 13.4664 17.7198C14.1009 18.3917 14.9781 18.7277 16.0979 18.7277C17.2177 18.7277 18.1073 18.3917 18.7667 17.7198C19.4261 17.048 20.2287 16.712 21.1743 16.712C22.1199 16.712 22.9162 17.048 23.5632 17.7198C24.2101 18.3917 25.0935 18.7277 26.2133 18.7277C27.3331 18.7277 28.2165 18.3917 28.8635 17.7198C29.5105 17.048 30.3068 16.712 31.2524 16.712C32.198 16.712 32.9507 16.9982 33.5106 17.5705C34.0705 18.1429 34.9353 18.4291 36.1048 18.4291V16.1895C35.1592 16.1895 34.394 15.9033 33.8092 15.331C33.2245 14.7586 32.3722 14.4725 31.2524 14.4725C30.1326 14.4725 29.2554 14.8084 28.6209 15.4803C27.9863 16.1521 27.1838 16.4881 26.2133 16.4881C25.2428 16.4881 24.4403 16.1521 23.8058 15.4803C23.1712 14.8084 22.2941 14.4725 21.1743 14.4725C20.0545 14.4725 19.1711 14.8084 18.5241 15.4803C17.8771 16.1521 17.0684 16.4881 16.0979 16.4881C15.1274 16.4881 14.3311 16.1521 13.709 15.4803C13.0869 14.8084 12.2159 14.4725 11.0961 14.4725C9.97635 14.4725 9.12407 14.7586 8.53929 15.331C7.95451 15.9033 7.18932 16.1895 6.24371 16.1895Z" fill="white" fill-opacity="0.6"/>
</svg>
