<svg width="487" height="153" viewBox="0 0 487 153" fill="none" xmlns="http://www.w3.org/2000/svg">
<g clip-path="url(#clip0_1_4)">
<mask id="mask0_1_4" style="mask-type:luminance" maskUnits="userSpaceOnUse" x="0" y="0" width="487" height="153">
<path d="M0 0H486.512V152.515H0V0Z" fill="white"/>
</mask>
<g mask="url(#mask0_1_4)">
<path d="M325.901 60.5537H333.625V67.1351H325.901V78.5404H319.262V50.9604H325.901V60.5537ZM316.666 93.2657C316.666 91.2551 315.922 89.5257 314.434 88.0777C312.945 86.6284 311.192 85.9044 309.184 85.9044C307.173 85.9044 305.432 86.6284 303.966 88.0777C302.492 89.5257 301.761 91.2551 301.761 93.2657C301.761 95.3204 302.492 97.0577 303.966 98.4911C305.432 99.9151 307.173 100.631 309.184 100.631C311.192 100.631 312.945 99.9151 314.434 98.4911C315.922 97.0577 316.666 95.3204 316.666 93.2657ZM323.185 93.3271C323.185 95.1364 322.813 96.8351 322.069 98.4297C321.322 100.018 320.348 101.414 319.142 102.624C317.854 103.83 316.357 104.783 314.65 105.491C312.934 106.194 311.133 106.544 309.244 106.544C307.352 106.544 305.542 106.194 303.813 105.491C302.08 104.783 300.569 103.83 299.285 102.624C298.038 101.414 297.044 100.018 296.3 98.4297C295.553 96.8351 295.184 95.1364 295.184 93.3271C295.184 91.5177 295.553 89.8164 296.3 88.2297C297.044 86.6364 298.038 85.2404 299.285 84.0311C300.569 82.8271 302.08 81.8684 303.813 81.1671C305.542 80.4631 307.352 80.1097 309.244 80.1097C311.133 80.1097 312.934 80.4631 314.65 81.1671C316.357 81.8684 317.854 82.8271 319.142 84.0311C320.348 85.2404 321.322 86.6364 322.069 88.2297C322.813 89.8164 323.185 91.5177 323.185 93.3271ZM308.341 77.5764L297.114 61.2217L285.948 77.9977L280.577 74.4351L297.114 50.2964L313.709 73.8964L308.341 77.5764Z" fill="#5C5C5B"/>
<path d="M384.283 79.6267V69.3693H374.867V63.6347H384.283V50.96H390.98V79.6267H384.283ZM379.815 93.2653C379.815 91.256 379.083 89.5267 377.613 88.0773C376.141 86.628 374.384 85.904 372.332 85.904C370.321 85.904 368.589 86.628 367.139 88.0773C365.691 89.5267 364.967 91.256 364.967 93.2653C364.967 95.3213 365.691 97.0573 367.139 98.4907C368.589 99.916 370.321 100.631 372.332 100.631C374.384 100.631 376.141 99.916 377.613 98.4907C379.083 97.0573 379.815 95.3213 379.815 93.2653ZM386.392 93.3267C386.392 95.136 386.021 96.8347 385.28 98.4307C384.532 100.017 383.536 101.413 382.289 102.624C381.041 103.829 379.564 104.783 377.855 105.491C376.141 106.195 374.324 106.544 372.392 106.544C370.5 106.544 368.691 106.195 366.959 105.491C365.228 104.783 363.744 103.829 362.493 102.624C361.243 101.413 360.252 100.017 359.508 98.4307C358.763 96.8347 358.391 95.136 358.391 93.3267C358.391 91.5173 358.763 89.8173 359.508 88.2293C360.252 86.6373 361.243 85.24 362.493 84.032C363.744 82.8267 365.228 81.8693 366.959 81.1667C368.691 80.4627 370.5 80.1093 372.392 80.1093C374.324 80.1093 376.141 80.4627 377.855 81.1667C379.564 81.8693 381.041 82.8267 382.289 84.032C383.536 85.24 384.532 86.6373 385.28 88.2293C386.021 89.8173 386.392 91.5173 386.392 93.3267ZM343.423 61.0413V55.4253H356.033V50.296H363.157V55.4253H375.169V61.0413H362.072L375.651 74.7973L371.304 78.9027L359.596 66.7107L348.009 79.868L343.543 75.7067L357.185 61.0413H343.423Z" fill="#5C5C5B"/>
<path d="M260.891 50.96H267.589V104.795H260.891V50.96ZM249.061 97.7333H242.421V60.316H221.781V54.2813H249.061V97.7333Z" fill="#5C5C5B"/>
<path d="M159.679 72.7347C148.328 65.02 133.79 68.1653 126.163 79.7693C119.79 89.46 110.168 90.668 106.439 90.668C94.3004 90.668 85.9884 82.124 83.5258 73.2853H83.5218C83.4964 73.1973 83.4818 73.1267 83.4564 73.04C83.4311 72.9387 83.4018 72.8427 83.3778 72.7387C82.4084 69.0547 82.1711 67.2893 82.1711 63.372C82.1711 42.2333 103.852 18.7027 135.09 18.7027C167.07 18.7027 185.368 43.048 190.083 56.5813C190.003 56.344 189.93 56.1067 189.846 55.8613C180.77 29.3947 155.672 10.3667 126.126 10.3667C88.9431 10.3667 58.7844 40.5133 58.7844 77.712C58.7844 110.957 82.7618 139.413 116.02 139.413C142.552 139.413 160.378 124.54 168.558 104.043C173.044 92.832 169.867 79.6547 159.679 72.7347Z" fill="#194067"/>
<path d="M190.503 57.8949C186.573 44.6949 168.135 18.7016 135.089 18.7016C103.853 18.7016 82.1713 42.2336 82.1713 63.3709C82.1713 67.2896 82.4086 69.0549 83.3779 72.7389C82.9713 71.1256 82.7553 69.5069 82.7553 67.9323C82.7553 45.9243 104.798 30.6696 127.453 30.6696C158.122 30.6696 182.981 55.5323 182.981 86.1936C182.981 110.236 169.146 131.04 149.045 141.038L149.053 141.054C174.963 131.672 193.467 106.856 193.467 77.7123C193.467 70.8163 192.539 64.7323 190.503 57.8949Z" fill="#E41E37"/>
</g>
</g>
<defs>
<clipPath id="clip0_1_4">
<rect width="486.512" height="152.515" fill="white"/>
</clipPath>
</defs>
</svg>
